<svg width="262" height="221" viewBox="0 0 656 554" version="1.1" xmlns="http://www.w3.org/2000/svg" xmlns:xlink="http://www.w3.org/1999/xlink"><title>编组 9备份</title><defs><polygon id="path-1" points="0 302.190238 36.7723142 279.310213 48.1757043 292.795762 48.1757043 323.754665 84.9080845 323.754665 84.9080845 306.773209 105.331379 284.599759 105.331379 323.754665 141.428184 323.754665 141.428184 292.795762 283.498921 138.077014 295.652752 -3.60573214e-17 254.79145 44.6858314 208.781527 18.2721213 184.370241 28.6309766 127.714151 6.03150054"></polygon><path d="M275.222101,70.1509079 L295.652752,-5.92592642e-12 C292.426708,-25.2827442 299.243684,-45.2113762 316.103679,-59.7858959 C332.963674,-74.3604156 357.294298,-81.3571354 389.09555,-80.7760555 C387.621246,-83.49784 378.72209,-85.5125567 362.398083,-86.8202056 C346.074077,-88.1278545 329.82256,-88.1278545 313.643535,-86.8202056 C302.112302,-103.175613 285.327648,-112.755893 263.289572,-115.561045 C241.251497,-118.366197 221.257057,-110.163017 203.306252,-90.9515051 L127.714151,6.03150054 L275.222101,70.1509079 Z" id="path-3"></path><path d="M0,262.828103 L199.423861,128.924185 L199.423861,11.9469691 L199.423861,0.926812446 C196.537808,-0.308937482 192.878901,-0.308937482 188.44714,0.926812446 C184.01538,2.16256237 178.235385,6.54590308 171.107156,14.0768346 L10.8821197,187.763404 L0,262.828103 Z" id="path-5"></path><polygon id="path-7" points="0 35.0024702 88.3053148 91.8595768 230.081847 0 26.6214921 0"></polygon><polygon id="path-9" points="0 140.301816 0 44.6858314 40.8613019 0 40.8613019 140.301816"></polygon><polygon id="path-11" points="0 5.24128204 9.39834343 4.94236591e-12 17.1339416 9.91615756 34.3918023 5.08595683 43.7976945 6.70790826 21.7326773 29.6263211"></polygon></defs><g id="最终版" stroke="none" stroke-width="1" fill="none" fill-rule="evenodd"><g id="新版Homepage备份-6" transform="translate(-984, -170)"><g id="编组-7" transform="translate(227.9409, 170)"><g id="编组-9备份" transform="translate(758.0705, 0.0168)"><g id="编组-8" transform="translate(393.563, 272.2325) scale(-1, 1) translate(-393.563, -272.2325)translate(133.1375, 26.6795)"><path d="M434.500385,0.469676198 C451.944932,-0.718850567 467.878532,0.348319056 482.301184,3.67118507 C496.723837,6.99405108 509.573819,12.3298912 520.85113,19.6787053 L480.643148,21.3428005 C461.984037,19.5949562 450.947661,17.4038722 447.534019,14.7695484 C439.422512,8.50985996 436.498932,5.8836221 438.763277,6.89083482 L434.500385,0.469676198 Z" id="路径-63" fill="#FFB700"></path><g id="路径-60" transform="translate(134.6409, 101.4008)"><mask id="mask-2" fill="white"><use xlink:href="#path-1"></use></mask><use id="蒙版" fill="#130832" xlink:href="#path-1"></use><mask id="mask-4" fill="white"><use xlink:href="#path-3"></use></mask><use id="蒙版" fill="#020B17" xlink:href="#path-3"></use><polygon fill="#E6E4C9" mask="url(#mask-4)" points="254.79145 -40.4903747 305.476733 -40.4903747 295.652752 4.00977704e-12 254.79145 44.6858314"></polygon></g><path d="M231.227047,85.4221492 L246.182524,85.4150272 L246.182524,85.4150272 L266.049924,258.051073 L169.567388,341.541502 L169.718703,146.989159 C169.73488,113.025727 197.263643,85.4969674 231.227075,85.4807937 Z" id="矩形" fill="#369E87" transform="translate(217.8087, 213.4783) rotate(38) translate(-217.8087, -213.4783)"></path><g id="路径-57备份" transform="translate(143.9986, 119.6729)"><mask id="mask-6" fill="white"><use xlink:href="#path-5"></use></mask><use id="蒙版" fill="#024B4F" xlink:href="#path-5"></use><path d="M59.6676052,221.795056 L199.893289,115.857743 L194.154364,50.2615268 L194.155007,42.7272811 C192.209004,41.8825911 189.741792,41.8828013 186.75337,42.7279117 C183.764948,43.5730221 179.867224,46.5701506 175.060198,51.7192971 L67.009829,170.4743 L59.6676052,221.795056 Z" fill="#FF342C" mask="url(#mask-6)" transform="translate(129.7804, 131.9445) rotate(5) translate(-129.7804, -131.9445)"></path><polygon id="路径-65" fill="#9F2108" mask="url(#mask-6)" points="38.8180382 201.331958 0 263.524099 208.140286 148.863793 199.423861 122.029695"></polygon></g><polygon id="路径-15" fill="#020B17" points="0 491.105823 51.7360227 415.183146 182.816635 321.004856 83.9880004 491.105823"></polygon><polygon id="路径-20" fill="#DE3C06" points="40.2971427 414.819592 66.71834 374.795896 175.872243 317.338686 182.816635 321.004856 87.5886721 414.819592"></polygon><polygon id="路径-54" fill="#024B4F" points="44.9715666 374.512194 120.389696 278.302407 175.872243 317.338686 107.411779 374.512194"></polygon><g id="路径-56" transform="translate(113.3406, 241.7026)"><mask id="mask-8" fill="white"><use xlink:href="#path-7"></use></mask><use id="蒙版" fill="#FF512D" xlink:href="#path-7"></use><polygon fill="#FFB700" mask="url(#mask-8)" points="23.5662356 55.8717366 84.7817861 -9.34850449 11.725332 -4.44011201 -16.2031288 36.599814"></polygon></g><polygon id="路径-59" fill="#FAE088" points="343.422457 14.7695484 398.844997 14.7695484 343.422457 60.9104025 389.43238 60.9104025 389.43238 146.086609 343.422457 119.672898"></polygon><g id="路径-62" transform="translate(389.4324, 101.4008)"><mask id="mask-10" fill="white"><use xlink:href="#path-9"></use></mask><use id="蒙版" fill="#E6E4C8" xlink:href="#path-9"></use><polygon fill="#D9CFA6" mask="url(#mask-10)" points="14.2558561 29.0640231 14.2558561 147.196307 -7.71393616 147.196307 -5.37965135 50.2827848"></polygon></g><path d="M190.725901,425.155442 L239.845618,472.967447 L223.944953,491.105823 L374.354905,491.105823 C371.158058,482.203793 367.272455,477.331757 362.698097,476.489717 C358.123738,475.647677 353.305904,476.940866 348.244593,480.369283 L317.920964,480.369283 L267.586018,425.155442 L247.798874,425.155442 L297.463887,472.967447 L289.254321,480.369283 L259.870912,480.369283 L209.058834,425.155442 L190.725901,425.155442 Z" id="路径-64" fill="#FF731F"></path><ellipse id="椭圆形" fill="#FFB700" cx="403.688236" cy="19.6787053" rx="9.85562221" ry="9.84595177"></ellipse></g><g id="编组-4" transform="translate(0.0506, 351.9547)"><g id="编组" transform="translate(-0, 0)"><g id="编组-64" transform="translate(88.2319, 93.3768) rotate(12) translate(-88.2319, -93.3768)translate(15.012, 13.4773)"><ellipse id="椭圆形备份-39" stroke="#161616" stroke-width="1.88547254" cx="80.2474728" cy="81.7811245" rx="66.1923872" ry="71.5021631"></ellipse><ellipse id="椭圆形" stroke="#000000" stroke-width="1.88547254" fill="#FFFFFF" transform="translate(72.6826, 79.8995) rotate(11) translate(-72.6826, -79.8995)" cx="72.6826285" cy="79.8994887" rx="60.5076356" ry="69.6334501"></ellipse><g id="编组" transform="translate(68.913, 78.5056) rotate(8) translate(-68.913, -78.5056)translate(45.4499, 41.4727)"><g id="编组-17" transform="translate(-0, -0)"><g id="编组-3" transform="translate(0, -0)"><path d="M-9.52694206e-13,49.6466446 L23.3602474,73.7627397 L46.9261012,51.2965567 L24.0800154,0.539215058 C23.8622192,0.0553352789 23.3323219,-0.138778627 22.8964567,0.105649515 C22.727996,0.200120309 22.5908909,0.351955358 22.5051972,0.538944339 L-9.52694206e-13,49.6466446 Z" id="路径-21" stroke="#000000" stroke-width="2.33893854"></path><polyline id="路径-22" stroke="#000000" stroke-width="2.33893854" points="10.1818774 27.3750954 23.2498534 34.4798234 36.5083546 27.3750954"></polyline><polygon id="路径-25" stroke="#000000" stroke-width="2.02703767" fill="#000000" fill-rule="nonzero" points="0.685066202 50.2726559 9.56589852 45.1015837 18.6370153 51.9896484 38.327196 46.5676757 46.5853987 51.6854384 23.3718701 73.7624603"></polygon><polyline id="路径-23" stroke="#000000" stroke-width="2.33893854" points="22.8544007 34.1637217 19.8820266 52.7584886 23.4662801 74.0658028"></polyline><line x1="19.7876165" y1="52.455146" x2="23.3718701" y2="73.7624603" id="路径-23" stroke="#FFFFFF" stroke-width="2.33893854"></line></g></g></g><line x1="125.198988" y1="40.7596467" x2="134.783233" y2="40.7596467" id="路径-179" stroke="#FFFFFF" stroke-width="1.88547254"></line><line x1="131.446105" y1="58.7713048" x2="143.249352" y2="58.7713048" id="路径-181" stroke="#FFFFFF" stroke-width="1.88547254"></line><line x1="133.201383" y1="75.1290407" x2="146.43986" y2="76.4489613" id="路径-197" stroke="#FFFFFF" stroke-width="1.88547254"></line><line x1="132.47934" y1="90.7361421" x2="145.277926" y2="93.5348112" id="路径-198" stroke="#FFFFFF" stroke-width="1.88547254"></line><line x1="128.733214" y1="105.419143" x2="141.358141" y2="108.662758" id="路径-199" stroke="#FFFFFF" stroke-width="1.88547254"></line><line x1="120.707145" y1="120.194788" x2="133.201383" y2="124.43989" id="路径-200" stroke="#FFFFFF" stroke-width="1.88547254"></line></g></g><g id="编组-64备份" transform="translate(165.7065, 106.5851) scale(-1, 1) rotate(29) translate(-165.7065, -106.5851)translate(100.8028, 35.6182)"><ellipse id="椭圆形备份-39" stroke="#000000" stroke-width="1.66819696" fill="#FFFFFF" cx="71.1495329" cy="72.6389243" rx="58.6577364" ry="63.5382372"></ellipse><ellipse id="椭圆形" stroke="#000000" stroke-width="1.66819696" fill="#FFFFFF" transform="translate(64.4458, 70.9669) rotate(11) translate(-64.4458, -70.9669)" cx="64.4457916" cy="70.9668655" rx="53.625421" ry="61.8714047"></ellipse><g id="编组-4备份-5" transform="translate(61.1463, 69.8911) scale(-1, 1) rotate(-2) translate(-61.1463, -69.8911)translate(38.8564, 37.8709)"><polygon id="路径-21" stroke="#000000" stroke-width="2.33893854" points="22.2752431 -3.64409879e-12 10.004349 12.3996579 1.50523832e-12 38.4780129 22.2752431 63.9304824 44.5797962 40.4996324 32.8033881 8.52762834"></polygon><g id="BTC" transform="translate(22.7249, 33.2023) rotate(8) translate(-22.7249, -33.2023)translate(13.5803, 17.2212)" fill="#000000" fill-rule="nonzero"><path d="M16.8992798,9.83457071 C17.0817844,12.1652255 16.4176464,13.8170885 14.9065963,14.7903111 C16.0929808,15.148821 16.9803563,15.8083096 17.5684532,16.7688147 C18.15655,17.7291685 18.3848231,19.0994695 18.2529127,20.8793772 C18.181907,21.7885964 18.0171464,22.5888849 17.7586008,23.2803941 C17.5000552,23.9719033 17.1729617,24.5417644 16.7774403,24.9899018 C16.3819188,25.438077 15.8901846,25.8127485 15.3019679,26.1135759 C14.713871,26.4145924 14.0977196,26.6354061 13.4538733,26.7761681 C12.8099071,26.9169302 12.0721859,27.012992 11.2406797,27.064278 L11.2406797,31.9622602 L8.8981533,31.9622602 L8.8981533,27.1410745 C8.08696869,27.1410745 7.46835949,27.1347158 7.04244561,27.1218092 L7.04244561,31.9622602 L4.700189,31.9622602 L4.700189,27.0641645 C4.51768445,27.0641645 4.24388267,27.0609094 3.87878365,27.0545129 C3.51365466,27.0481542 3.23481745,27.0448613 3.04224203,27.0448613 L-1.15818466e-12,27.0448613 L0.471562501,23.529784 L2.16005179,23.529784 C2.66704217,23.529784 2.96116553,23.2032948 3.04224203,22.5501649 L3.04224203,9.29676805 C2.9104515,8.4259282 2.45921058,7.99065967 1.68848928,7.99065967 L-1.15818466e-12,7.99065967 L-1.15818466e-12,4.840451 L3.22474658,4.85971636 C3.87374822,4.85971636 4.3656323,4.85335765 4.70021897,4.840451 L4.70021897,1.91668903e-12 L7.04274534,1.91668903e-12 L7.04274534,4.74442697 C7.87425153,4.71876505 8.49286072,4.70604764 8.89845303,4.70604764 L8.89845303,1.91668903e-12 L11.2409794,1.91668903e-12 L11.2409794,4.840451 C12.0420931,4.93011631 12.7518797,5.07417127 13.3704889,5.27261587 C13.9890981,5.47106047 14.5620586,5.75917039 15.0893706,6.13690777 C15.6166826,6.51464516 16.0349534,7.01410633 16.3443329,7.6350642 C16.6534127,8.25621132 16.8384949,8.98939277 16.8992798,9.83457071 Z M13.6288846,20.3028545 C13.6288846,19.8417727 13.5528435,19.4320147 13.4007314,19.0735048 C13.2486193,18.7149949 13.0609595,18.4203749 12.8379916,18.1899097 C12.6148739,17.9594445 12.3233581,17.7641035 11.9634145,17.6040761 C11.6034708,17.4440108 11.2713419,17.3256178 10.9671476,17.2486699 C10.6629534,17.1719112 10.2877535,17.1142665 9.84154806,17.0758872 C9.39534257,17.0375079 9.04546975,17.0182425 8.79198954,17.0182425 C8.53847936,17.0182425 8.21138589,17.0246012 7.810859,17.0375079 C7.41030212,17.0502253 7.16947045,17.0567732 7.08839395,17.0567732 L7.08839395,23.5490872 C7.16950042,23.5490872 7.3571603,23.5523423 7.6511338,23.5587388 C7.94525716,23.5650976 8.18851663,23.5683905 8.38124191,23.5683905 C8.57396719,23.5683905 8.84258368,23.5587388 9.18739109,23.5396627 C9.5321985,23.5205488 9.82877963,23.4949247 10.0772244,23.4629041 C10.3256692,23.4308834 10.6146072,23.3764938 10.9443083,23.2995837 C11.2738596,23.2228251 11.5553044,23.1331598 11.788493,23.0305878 C12.0216816,22.9281672 12.2625133,22.7937639 12.5109581,22.6271885 C12.7594028,22.4607645 12.9596213,22.2686786 13.1117334,22.0509687 C13.2638455,21.8332587 13.3881129,21.5771694 13.4843556,21.2827008 C13.5805085,20.9881565 13.6288846,20.6615158 13.6288846,20.3028545 L13.6288846,20.3028545 Z M12.5489337,11.1597931 C12.5489337,10.7372798 12.4855711,10.3626082 12.358816,10.036119 C12.2320609,9.70962972 12.0773712,9.44063376 11.8948966,9.22928251 C11.712392,9.01793125 11.4689827,8.83878986 11.1647885,8.691442 C10.8605942,8.54413199 10.581757,8.43860776 10.3282468,8.37441511 C10.0747367,8.31041171 9.76292933,8.25908788 9.3927649,8.22070855 C9.02260048,8.18232922 8.72847712,8.16631891 8.51057466,8.17267761 C8.29252234,8.17903632 8.01872056,8.18539502 7.68916931,8.19194298 C7.35961807,8.19830168 7.15927969,8.20159458 7.08839395,8.20159458 L7.08839395,14.0984234 C7.13910798,14.0984234 7.31408935,14.1016784 7.61309828,14.108075 C7.91225707,14.1144337 8.14802334,14.1144337 8.32042704,14.108075 C8.49283075,14.1017163 8.74634093,14.0888096 9.0809276,14.0696957 C9.41551428,14.0504303 9.6943515,14.015306 9.91746923,13.96402 C10.140587,13.912734 10.4017102,13.8423341 10.700869,13.7526688 C11.0000278,13.6630034 11.2458949,13.5446104 11.4385902,13.3972625 C11.6313155,13.2499525 11.8188255,13.077132 12.0013301,12.8787253 C12.1838346,12.6802807 12.3207805,12.4336537 12.4119578,12.1391851 C12.5031352,11.8447165 12.5489337,11.5184543 12.5489337,11.1597931 L12.5489337,11.1597931 Z" id="形状"></path></g><g id="形状" transform="translate(0.5143, 34.4141)"><mask id="mask-12" fill="white"><use xlink:href="#path-11"></use></mask><use id="蒙版" fill="#000000" fill-rule="nonzero" xlink:href="#path-11"></use><path d="M30.1036555,-6.96360106 C30.2869386,-4.64354563 29.6199673,-2.999195 28.1024707,-2.03039845 C29.2939166,-1.67351901 30.1850779,-1.01702965 30.7756837,-0.0608926695 C31.3662895,0.895093597 31.5955365,2.25916276 31.4630633,4.03097572 C31.3917547,4.93605994 31.2262912,5.73270889 30.9666425,6.42107325 C30.7069939,7.10943762 30.378505,7.67670713 29.9812961,8.12280642 C29.5840873,8.56894339 29.0902552,8.94191104 28.499529,9.24137026 C27.9089232,9.54101787 27.2901431,9.76082727 26.64355,9.90094917 C25.9968364,10.0410711 25.2559679,10.1366961 24.4209143,10.1877488 L24.4209143,15.0634559 L22.0683941,15.0634559 L22.0683941,10.2641961 C21.2537488,10.2641961 20.6325005,10.2578663 20.2047695,10.2450183 L20.2047695,15.0634559 L17.8525203,15.0634559 L17.8525203,10.1876358 C17.6692371,10.1876358 17.3942672,10.1843955 17.0276106,10.1780281 C16.6609239,10.1716983 16.3808971,10.1684204 16.1875001,10.1684204 L13.1322791,10.1684204 L13.6058534,6.66932902 L15.3015462,6.66932902 C15.8106995,6.66932902 16.1060777,6.34432458 16.1875001,5.694165 L16.1875001,-7.49895789 C16.0551473,-8.36583733 15.6019813,-8.79912634 14.8279719,-8.79912634 L13.1322791,-8.79912634 L13.1322791,-11.9350085 L16.3707832,-11.9158307 C17.0225537,-11.9158307 17.5165362,-11.9221605 17.8525504,-11.9350085 L17.8525504,-16.753446 L20.2050705,-16.753446 L20.2050705,-12.0305958 C21.0401241,-12.056141 21.6613725,-12.0688006 22.0686951,-12.0688006 L22.0686951,-16.753446 L24.4212153,-16.753446 L24.4212153,-11.9350085 C25.2257468,-11.8457509 25.9385615,-11.7023511 26.5598098,-11.504809 C27.1810582,-11.3072669 27.7564631,-11.0204672 28.2860247,-10.6444477 C28.8155864,-10.2684282 29.2356416,-9.77123849 29.546341,-9.15310462 C29.8567394,-8.53478237 30.0426113,-7.80493529 30.1036555,-6.96360106 Z M26.819308,3.457075 C26.819308,2.99809007 26.7429425,2.59019556 26.5901814,2.23331613 C26.4374204,1.87643669 26.2489599,1.58315655 26.0250408,1.35373943 C25.8009712,1.12432232 25.5082118,0.92986975 25.1467325,0.770570103 C24.7852532,0.611232779 24.4517073,0.493378168 24.1462153,0.416780207 C23.8407233,0.340370632 23.4639228,0.282988096 23.0158137,0.244783308 C22.5677045,0.206578521 22.2163391,0.187400772 21.9617775,0.187400772 C21.7071857,0.187400772 21.3786968,0.19373056 20.9764612,0.206578521 C20.5741954,0.219238095 20.3323363,0.225756269 20.2509139,0.225756269 L20.2509139,6.68854444 C20.3323664,6.68854444 20.5208269,6.69178469 20.8160545,6.69815216 C21.1114327,6.70448194 21.35573,6.70775987 21.5492775,6.70775987 C21.742825,6.70775987 22.0125874,6.69815216 22.3588659,6.67916279 C22.7051443,6.66013575 23.0029908,6.63462822 23.2524955,6.60275322 C23.5020002,6.57087822 23.7921709,6.51673593 24.1232786,6.44017565 C24.4542358,6.36376607 24.7368814,6.27450853 24.9710648,6.17240304 C25.2052482,6.07044825 25.4471074,5.93665614 25.6966121,5.77083832 C25.9461168,5.60517121 26.1471894,5.41395888 26.2999505,5.19723902 C26.4527115,4.98051916 26.577509,4.72559452 26.6741624,4.43246508 C26.7707254,4.13926029 26.819308,3.81410515 26.819308,3.457075 L26.819308,3.457075 Z M25.7347496,-5.64440557 C25.7347496,-6.06499733 25.6711168,-6.43796497 25.5438209,-6.76296941 C25.4165251,-7.08797384 25.2611753,-7.35574645 25.0779223,-7.56613653 C24.8946391,-7.7765266 24.6501913,-7.95485328 24.3446993,-8.10153103 C24.0392073,-8.24817111 23.7591805,-8.35321543 23.5045888,-8.41711614 C23.2499971,-8.48082847 22.9368595,-8.53191889 22.5651159,-8.57012368 C22.1933722,-8.60832847 21.8979941,-8.62426597 21.679162,-8.61793618 C21.4601794,-8.61160639 21.1852095,-8.6052766 20.8542523,-8.59875843 C20.5232951,-8.59242864 20.3221021,-8.58915072 20.2509139,-8.58915072 L20.2509139,-2.71913959 C20.3018443,-2.71913959 20.4775722,-2.71589934 20.7778567,-2.70953188 C21.0782918,-2.70320209 21.3150639,-2.70320209 21.4882032,-2.70953188 C21.6613424,-2.71586166 21.9159341,-2.72870962 22.2519482,-2.74773666 C22.5879623,-2.76691441 22.8679891,-2.80187895 23.0920587,-2.8529317 C23.3161283,-2.90398445 23.5783656,-2.97406424 23.8788007,-3.06332177 C24.1792358,-3.15257931 24.4261518,-3.27043392 24.6196692,-3.41711167 C24.8132167,-3.56375174 25.0015267,-3.73578632 25.1848099,-3.93329075 C25.368093,-4.13083286 25.5056231,-4.37633818 25.5971895,-4.66946762 C25.6887558,-4.96259705 25.7347496,-5.28737543 25.7347496,-5.64440557 L25.7347496,-5.64440557 Z" fill="#000000" fill-rule="nonzero" mask="url(#mask-12)" transform="translate(22.3159, -0.845) rotate(8) translate(-22.3159, 0.845)"></path></g><polyline id="路径-22" stroke="#000000" stroke-width="2.33893854" points="9.67855703 12.5060882 21.1396928 16.5292408 33.1416076 8.7328405"></polyline></g><line x1="110.984236" y1="36.1864273" x2="119.477511" y2="36.1864273" id="路径-179" stroke="#000000" stroke-width="1.66819696"></line><line x1="116.520247" y1="52.1919432" x2="126.979936" y2="52.1919432" id="路径-181" stroke="#000000" stroke-width="1.66819696"></line><line x1="118.075722" y1="66.727751" x2="129.807269" y2="67.9006585" id="路径-197" stroke="#000000" stroke-width="1.66819696"></line><line x1="117.435869" y1="80.5965302" x2="128.777598" y2="83.0834829" id="路径-198" stroke="#000000" stroke-width="1.66819696"></line><line x1="114.116164" y1="93.6441349" x2="125.304" y2="96.5264757" id="路径-199" stroke="#000000" stroke-width="1.66819696"></line><line x1="107.003698" y1="106.774066" x2="118.075722" y2="110.546348" id="路径-200" stroke="#000000" stroke-width="1.66819696"></line><line x1="96.7478424" y1="118.010737" x2="107.721894" y2="121.778998" id="路径-201" stroke="#000000" stroke-width="1.66819696"></line></g></g></g></g></g></g></svg>